<svg xmlns="http://www.w3.org/2000/svg" width="32" height="32" viewBox="0 0 24 24" fill="none" stroke="#10b981" stroke-width="2" stroke-linecap="round" stroke-linejoin="round">
  <path d="M12 5a3 3 0 1 0-5.997.125 4 4 0 0 0-2.526 5.77 4 4 0 0 0 .556 6.588A4 4 0 1 0 12 18Z"/>
  <path d="M9 13a4.5 4.5 0 0 0 3-4"/>
  <path d="M6.003 5.125A3 3 0 0 0 6.401 6.5"/>
  <path d="M3.477 10.896a4 4 0 0 1 .585-.396"/>
  <path d="M6 18a4 4 0 0 1-1.968-.524"/>
  <path d="M12 5a3 3 0 1 1 5.997.125 4 4 0 0 1 2.526 5.77 4 4 0 0 1-.556 6.588A4 4 0 1 1 12 18Z"/>
  <path d="M15 13a4.5 4.5 0 0 1-3-4"/>
  <path d="M17.997 5.125A3 3 0 0 1 17.599 6.5"/>
  <path d="M20.523 10.896a4 4 0 0 0-.585-.396"/>
  <path d="M18 18a4 4 0 0 0 1.968-.524"/>
</svg>
